<?xml version="1.0" standalone="no"?>
<!DOCTYPE svg PUBLIC "-//W3C//DTD SVG 20010904//EN"
 "http://www.w3.org/TR/2001/REC-SVG-20010904/DTD/svg10.dtd">
<svg version="1.0" xmlns="http://www.w3.org/2000/svg"
 width="393.000000pt" height="393.000000pt" viewBox="0 0 393.000000 393.000000"
 preserveAspectRatio="xMidYMid meet">
<metadata>
Created by potrace 1.11, written by Peter Selinger 2001-2013
</metadata>
<g transform="translate(0.000000,393.000000) scale(0.100000,-0.100000)"
fill="#000000" stroke="none">
<path d="M991 3441 c-24 -21 -24 -22 -11 -104 25 -159 25 -161 -7 -209 -33
-48 -79 -199 -68 -219 5 -8 4 -10 -3 -5 -7 4 -12 2 -12 -4 0 -13 -56 -87 -85
-111 -14 -13 -22 -14 -28 -6 -5 8 -14 4 -28 -13 -11 -14 -27 -33 -35 -43 -7
-9 -14 -20 -14 -23 0 -10 -28 -34 -39 -34 -15 0 -71 -54 -71 -69 0 -6 -10 -21
-22 -33 -11 -11 -22 -31 -24 -42 -19 -132 -66 -271 -91 -262 -8 3 -7 -6 4 -32
14 -33 14 -35 -1 -23 -14 12 -16 11 -10 -5 4 -10 4 -16 0 -12 -8 6 -76 -57
-76 -70 0 -4 -21 -29 -46 -57 -26 -27 -46 -52 -47 -55 0 -6 -13 -41 -29 -77
-16 -37 -19 -85 -6 -100 8 -10 6 -13 -7 -13 -10 0 -15 -5 -12 -14 3 -7 1 -18
-4 -23 -12 -12 -1 -63 12 -63 5 0 9 12 9 26 0 14 4 23 9 19 5 -3 16 4 25 16
10 15 20 19 33 15 9 -4 14 -4 11 0 -8 7 15 34 29 34 14 0 58 52 58 68 0 8 8
16 18 18 14 2 15 -1 8 -10 -11 -14 -5 -26 13 -26 6 0 4 5 -4 10 -13 8 -12 10
3 10 10 0 16 3 13 8 -2 4 14 7 37 6 23 0 47 3 52 6 6 4 30 8 55 9 25 0 61 1
80 1 19 1 55 -3 80 -9 25 -6 72 -11 105 -12 97 -2 125 -14 171 -71 24 -31 36
-123 38 -313 1 -126 5 -199 12 -203 15 -9 28 -182 14 -182 -6 0 -10 -59 -10
-157 0 -98 -6 -192 -16 -246 -8 -49 -14 -96 -13 -105 3 -31 -1 -41 -21 -60
-11 -10 -26 -37 -34 -60 l-15 -42 1444 0 1445 0 0 75 c0 67 -2 75 -19 75 -11
0 -23 9 -26 20 -4 11 -17 32 -31 47 -13 14 -24 32 -24 39 0 8 -4 14 -9 14 -5
0 -16 12 -24 27 -35 67 -47 87 -47 79 0 -5 -45 37 -99 92 -54 56 -103 102
-107 102 -5 0 -23 13 -40 29 -29 27 -70 47 -87 43 -5 -2 -39 17 -75 42 -76 50
-218 126 -235 126 -7 0 -34 11 -62 25 -27 13 -54 25 -58 25 -4 0 -29 9 -55 21
-26 11 -56 24 -67 28 -38 16 -70 31 -85 40 -17 11 -115 51 -139 57 -55 14
-242 82 -254 92 -8 7 -23 14 -33 16 -38 8 -109 44 -126 64 -9 12 -15 30 -13
42 2 12 0 18 -6 14 -10 -6 -71 58 -96 100 -42 72 -103 203 -98 214 2 7 1 11
-4 8 -4 -3 -16 12 -26 34 -10 22 -22 40 -27 40 -4 0 -8 4 -8 10 0 5 -12 35
-27 67 -15 32 -26 61 -25 66 1 4 -2 7 -7 7 -5 0 -22 28 -39 63 -16 34 -52 90
-79 123 -28 34 -57 70 -64 79 -30 38 -158 165 -166 165 -4 0 -14 9 -21 21 -8
12 -19 18 -29 15 -9 -4 -17 1 -20 12 -2 10 -14 19 -26 19 -12 1 -40 9 -62 17
-22 9 -51 17 -65 19 -14 2 -29 13 -34 24 -7 15 -24 23 -64 29 l-54 9 59 65
c33 36 62 70 64 75 2 6 11 10 19 10 9 0 14 8 12 18 -2 10 4 17 13 17 22 0 66
35 57 45 -4 5 -1 5 5 1 13 -7 75 23 68 33 -2 3 7 7 18 8 58 4 77 9 77 19 0 14
-1 14 170 17 155 2 179 9 221 61 20 25 14 43 -23 75 -16 13 -40 45 -53 71 -29
56 -39 62 -82 44 -18 -7 -33 -10 -33 -6 0 4 -4 1 -9 -7 -12 -19 -54 -4 -47 16
5 11 2 13 -11 8 -10 -4 -50 -10 -89 -14 -56 -5 -80 -13 -115 -36 -24 -17 -50
-32 -57 -35 -8 -3 -14 -10 -15 -15 -3 -21 -32 -45 -53 -45 -31 0 -84 -53 -84
-84 0 -14 -8 -30 -17 -35 -10 -6 -15 -11 -10 -11 14 0 -21 -55 -57 -88 -20
-19 -36 -42 -36 -53 0 -11 -4 -27 -9 -37 -8 -14 -14 -30 -24 -62 -1 -3 -12
-15 -26 -27 -26 -25 -53 -30 -50 -10 1 6 -1 20 -6 30 -4 10 -4 35 -1 55 4 20
8 53 10 72 1 22 12 46 29 64 21 22 24 32 15 38 -10 7 -10 11 3 21 8 6 24 28
35 46 18 33 44 69 72 97 6 7 12 18 12 24 0 6 5 8 12 4 6 -4 8 -3 5 3 -4 6 0
27 9 48 8 20 12 45 9 56 -8 25 -41 24 -57 -1 -18 -28 -45 -25 -52 5 -6 22 -9
23 -31 13 -21 -9 -27 -8 -38 6 -12 16 -14 16 -36 -3z"/>
</g>
</svg>
